<svg width="518" height="140" viewBox="0 0 518 140" fill="none" xmlns="http://www.w3.org/2000/svg">
<path d="M91.684 48.9472C93.7923 48.6737 95.917 48.5558 98.0245 48.2781C99.2116 48.1224 100.39 47.8784 101.58 47.8153C102.43 47.769 103.642 47.3904 103.928 48.5642C104.181 49.612 103.095 50.1253 102.333 50.6176C99.1816 52.6498 95.8406 54.2614 92.1678 55.1197C89.9674 55.6331 87.7749 56.2053 85.5534 56.6134C84.4383 56.8154 83.9208 57.4591 83.6978 58.4059C83.0203 61.2502 82.4776 64.1325 81.7413 66.9642C79.4102 75.9769 77.2307 85.0355 74.5631 93.9478C72.8927 99.5349 70.73 105.022 68.2937 110.328C64.3512 118.911 58.2039 125.665 49.7003 129.939C43.4815 133.07 36.8166 134.012 29.9035 132.737C26.7142 132.148 23.8067 130.92 21.1391 129.073C17.916 126.847 16.0353 123.733 14.9371 120.051C14.5373 118.709 14.6425 117.451 15.1559 116.16C16.5907 112.545 19.1363 110.206 22.9778 109.478C24.6566 109.158 26.4154 108.952 28.1111 109.07C30.4547 109.234 31.0396 110.13 30.9134 112.486C30.7787 115.011 30.5179 117.536 30.5641 120.056C30.6357 123.943 32.7563 126.464 36.2991 127.903C38.1462 128.652 39.9934 128.689 41.6848 127.675C43.149 126.796 44.5839 125.774 45.7999 124.579C48.6779 121.756 50.9752 118.474 52.4269 114.704C53.7649 111.236 55.1113 107.74 56.0496 104.151C59.3357 91.5452 62.4368 78.8885 65.6387 66.2573C66.3877 63.2951 67.2965 60.3708 68.0371 57.4045C68.4032 55.936 67.9403 55.4521 66.4887 55.3006C62.8575 54.922 59.3399 55.7761 55.7888 56.2726C54.6148 56.4367 53.4241 56.5125 52.2375 56.5713C52.0272 56.5797 51.6611 56.3484 51.619 56.1716C51.5348 55.8182 51.4885 55.3006 51.6821 55.0735C52.1996 54.4802 52.7971 53.9164 53.4619 53.504C56.2936 51.7368 59.2432 50.2179 62.5251 49.4394C64.7257 48.9177 66.9094 48.3244 69.1269 47.8953C70.3597 47.6597 70.8898 46.9696 71.2727 45.8672C72.8085 41.4744 74.319 37.0691 76.0147 32.7394C78.9474 25.2499 83.7651 19.1447 90.106 14.226C94.8483 10.5485 100.175 8.45314 106.162 7.74626C110.345 7.24976 114.417 7.31288 118.351 8.77713C120.451 9.55553 122.433 10.6916 124.381 11.815C127.028 13.3382 128.58 15.808 129.818 18.5261C132.047 23.428 129.522 27.421 126.7 29.4575C123.994 31.4057 120.788 31.94 117.578 31.6876C114.822 31.4687 114.24 30.3958 114.481 28.0564C114.586 26.9961 114.775 25.9484 114.851 24.888C114.956 23.4322 115.103 21.9638 115.023 20.5122C114.901 18.3158 114.026 16.3803 112.406 14.8487C109.268 11.8781 105.438 11.2133 101.61 14.2344C99.1943 16.1405 97.1917 18.4588 95.5545 21.0844C93.7121 24.0424 92.3236 27.219 91.3095 30.5263C89.6724 35.8615 88.1957 41.2515 86.7104 46.633C86.2729 48.215 86.7189 48.6863 88.4944 48.8672C88.8899 48.9051 89.2897 48.9388 89.6896 48.9472C90.3539 48.9597 91.019 48.9472 91.684 48.9472Z" fill="black" stroke="black" stroke-width="4.92654"/>
<path d="M208.084 81.8222V78.7609C208.084 75.3594 204.229 73.9988 201.054 73.9988H182.346C181.779 73.9988 181.552 74.339 181.439 74.5658V91.5732C181.439 96.562 181.665 102.345 181.665 102.345C181.665 104.045 184.5 105.406 186.201 105.406H191.53C192.664 105.406 192.664 107.9 192.664 109.941C188.468 109.714 181.212 109.601 175.77 109.601C170.441 109.601 164.205 109.828 159.896 109.941C159.896 107.787 159.896 105.406 161.03 105.406H166.472C168.173 105.406 170.667 104.045 170.667 102.345C170.667 102.345 170.781 96.7888 170.781 91.5732V38.3967C170.781 36.696 168.06 35.3354 166.359 35.3354H161.03C159.896 35.3354 159.896 32.9543 159.896 30.8C164.205 30.9134 170.441 31.1402 175.77 31.1402H215.68L217.721 33.2945C217.721 33.2945 218.061 33.5212 218.061 34.4283L217.494 45.8799C217.494 46.2201 217.381 46.3335 216.927 46.3335L212.392 46.5602C212.052 46.5602 211.939 46.4469 211.939 46.1067C211.825 40.0974 211.032 36.5826 204.342 36.5826H184.954C182.686 36.5826 181.665 37.8298 181.552 39.6439L181.439 68.1029C181.552 68.3297 181.779 68.5565 182.346 68.5565H201.054C204.229 68.5565 208.084 67.4227 208.084 63.7944L208.537 60.1662C208.651 59.0323 211.032 58.352 212.959 59.5992C212.279 63.9078 212.052 65.3818 212.052 70.7107C212.052 76.1531 212.165 78.8743 212.279 83.0695C210.238 84.0899 208.084 83.4096 208.084 81.8222Z" fill="black"/>
<path d="M265.678 100.19C266.699 101.097 268.513 102.571 267.379 103.705C262.504 108.581 255.701 111.075 248.331 111.075C230.303 111.075 223.727 98.7163 223.727 84.43C223.84 69.3502 235.179 57.445 249.125 57.445C262.05 57.445 268.4 65.9487 268.4 81.142L233.591 82.8427C233.705 95.6549 239.714 104.499 251.165 104.499C255.134 104.499 260.123 104.385 265.678 100.19ZM247.31 62.0937C240.621 62.0937 234.612 65.6085 233.705 78.7609L258.422 76.6066C258.422 70.2572 255.247 62.0937 247.31 62.0937Z" fill="black"/>
<path d="M277.099 109.941C277.099 107.787 277.099 105.859 278.233 105.859H283.675C283.789 105.859 285.376 105.859 285.376 103.705C285.376 103.705 285.83 97.5824 285.83 92.3668V66.5156C285.83 65.155 285.036 63.7944 282.655 63.7944H278.12C277.666 63.7944 277.553 63.681 277.553 63.3409V60.8465C277.553 60.6197 277.553 60.0528 278.12 59.9394C278.8 59.826 291.839 57.5584 292.179 57.5584C293.086 57.5584 293.313 57.8985 293.313 57.8985L295.58 60.3929V67.7628C295.921 66.2888 303.517 57.445 310.093 57.445C313.382 57.445 316.896 58.1253 318.03 61.1866C318.03 61.1866 318.257 61.6401 318.144 62.5472L317.463 71.6178C317.463 71.8446 317.237 71.958 317.01 71.958C315.763 72.0713 312.815 71.958 312.928 71.958C312.588 71.958 312.475 71.8446 312.475 71.5044C312.248 69.4635 312.021 68.1029 311.794 67.0825C311.341 65.155 309.753 64.7015 307.259 64.7015C302.27 64.9282 295.58 71.6178 295.58 75.9264V92.3668C295.58 97.3557 296.147 103.705 296.147 103.705C296.261 105.859 299.776 105.859 299.889 105.859H305.218C306.352 105.859 306.352 107.9 306.352 109.941C306.352 109.941 295.921 109.601 290.365 109.601C285.036 109.601 277.099 109.941 277.099 109.941Z" fill="black"/>
<path d="M360.226 105.859H365.782C366.689 105.859 367.256 105.066 367.369 103.705C367.369 103.705 367.936 97.5824 367.936 92.3668V77.1736C367.936 71.6178 367.596 65.155 357.165 65.0416C350.475 65.0416 343.559 69.9171 343.219 73.9988V92.3668C343.219 97.3557 343.786 103.705 343.786 103.705C343.899 105.066 344.353 105.859 345.373 105.859H350.702C351.836 105.859 351.836 107.9 351.836 109.941C347.641 109.714 343.559 109.601 338.003 109.601C332.674 109.601 329.046 109.828 324.738 109.941C324.738 107.787 324.738 105.859 325.871 105.859H331.314C332.334 105.859 332.788 105.066 333.014 103.705C333.014 103.705 333.468 97.5824 333.468 92.3668V66.9691C333.468 65.6085 332.674 64.2479 330.293 64.2479H325.758C325.304 64.2479 325.191 64.1346 325.191 63.7944V61.3C325.191 61.0732 325.191 60.5063 325.758 60.3929C326.438 60.2795 339.477 58.0119 339.817 58.0119C340.725 58.0119 340.951 58.352 340.951 58.352L343.219 60.8465V66.8557C343.786 66.629 351.269 58.0119 360.907 58.0119C366.576 58.0119 374.059 61.4134 376.667 67.7628C377.801 66.629 385.851 58.0119 395.262 58.0119C402.291 58.0119 412.042 63.0007 412.042 72.5249V92.3668C412.042 97.3557 412.609 103.705 412.609 103.705C412.722 105.066 413.176 105.859 414.196 105.859L419.525 105.519C420.659 105.519 420.659 107.56 420.659 109.601C416.578 109.374 412.382 109.601 406.827 109.601C401.498 109.601 397.869 109.828 393.561 109.941C393.561 107.787 393.561 105.859 394.695 105.859H400.137C401.157 105.859 401.611 105.066 401.838 103.705C401.838 103.705 402.291 97.5824 402.291 92.3668V77.1736C402.291 71.6178 402.065 65.155 391.633 65.0416C384.944 65.0416 378.027 70.1438 377.687 74.2256V92.3668C377.687 97.3557 378.141 103.705 378.141 103.705C378.254 105.066 378.821 105.859 379.842 105.859H385.171C386.304 105.859 386.304 107.9 386.304 109.941C382.109 109.714 377.914 109.601 372.472 109.601C367.143 109.601 363.401 109.828 359.093 109.941C359.093 107.787 359.092 105.859 360.226 105.859Z" fill="black"/>
<path d="M458.992 98.4895V86.3576C452.303 87.8315 446.974 89.5323 443.232 91.233C440.624 92.3668 438.357 94.2943 438.357 97.6958C438.357 101.778 441.191 104.272 444.366 104.272C448.788 104.272 454.911 101.551 458.992 98.4895ZM433.028 67.3093C433.028 66.4022 433.028 66.2888 433.595 65.8353C435.295 64.7015 443.572 57.445 450.375 57.445C456.498 57.445 468.63 60.5063 468.63 71.2777V90.2126C468.63 98.3761 468.857 101.324 468.857 101.324C469.083 103.818 470.331 105.633 473.165 105.633H475.319C475.773 105.633 476 105.859 476 106.086V108.467C476 108.921 476 109.261 475.433 109.374C468.857 110.395 462.847 111.302 462.394 111.302C461.487 111.302 461.26 110.962 461.26 110.962L458.992 108.467V102.458C454.457 106.766 448.675 111.075 442.439 111.075C434.955 111.075 429.286 105.859 429.286 97.8092C429.286 92.2535 434.388 89.0787 438.357 87.7181C444.706 85.4505 449.355 84.0899 458.992 82.6159V74.339C458.879 70.0305 456.271 63.7944 445.953 63.7944C443.799 63.7944 440.398 64.2479 439.944 67.0825C439.717 68.2163 439.491 70.2572 439.15 75.0193C439.15 75.3594 439.037 75.3594 438.81 75.4728C438.697 75.4728 435.182 75.4728 433.595 75.2461C433.595 75.2461 433.255 75.2461 433.255 74.9059L433.028 67.3093Z" fill="black"/>
<path d="M511.281 102.231C513.095 105.066 512.415 106.2 511.281 106.993C508.56 108.921 503.458 110.508 499.83 110.508C491.326 110.508 487.698 106.88 487.698 97.2423V66.8557C487.584 65.8353 487.244 65.0416 486.11 65.0416L481.348 64.9282C481.008 64.9282 480.895 64.8149 480.895 64.4747V61.6401C480.895 61.3 480.895 60.8465 481.348 60.7331L487.698 59.5992V48.8279C487.698 48.4877 487.698 48.261 488.151 47.9208L493.594 42.1383C493.594 42.1383 493.82 41.7982 494.727 41.7982C495.068 41.7982 496.201 42.2517 496.995 42.5918C497.449 42.7052 497.449 43.1588 497.449 43.3855V58.8056C497.562 59.2591 497.789 59.5992 498.242 59.5992L511.621 59.4859C511.621 63.0007 511.621 64.9282 509.24 64.9282H498.469C497.789 64.9282 497.562 65.4951 497.449 66.0621V97.2423C497.449 103.365 500.51 104.499 502.891 104.499C507.313 104.499 511.281 102.231 511.281 102.231Z" fill="black"/>
<path d="M208.084 81.8222V78.7609C208.084 75.3594 204.229 73.9988 201.054 73.9988H182.346C181.779 73.9988 181.552 74.339 181.439 74.5658V91.5732C181.439 96.562 181.665 102.345 181.665 102.345C181.665 104.045 184.5 105.406 186.201 105.406H191.53C192.664 105.406 192.664 107.9 192.664 109.941C188.468 109.714 181.212 109.601 175.77 109.601C170.441 109.601 164.205 109.828 159.896 109.941C159.896 107.787 159.896 105.406 161.03 105.406H166.472C168.173 105.406 170.667 104.045 170.667 102.345C170.667 102.345 170.781 96.7888 170.781 91.5732V38.3967C170.781 36.696 168.06 35.3354 166.359 35.3354H161.03C159.896 35.3354 159.896 32.9543 159.896 30.8C164.205 30.9134 170.441 31.1402 175.77 31.1402H215.68L217.721 33.2945C217.721 33.2945 218.061 33.5212 218.061 34.4283L217.494 45.8799C217.494 46.2201 217.381 46.3335 216.927 46.3335L212.392 46.5602C212.052 46.5602 211.939 46.4469 211.939 46.1067C211.825 40.0974 211.032 36.5826 204.342 36.5826H184.954C182.686 36.5826 181.665 37.8298 181.552 39.6439L181.439 68.1029C181.552 68.3297 181.779 68.5565 182.346 68.5565H201.054C204.229 68.5565 208.084 67.4227 208.084 63.7944L208.537 60.1662C208.651 59.0323 211.032 58.352 212.959 59.5992C212.279 63.9078 212.052 65.3818 212.052 70.7107C212.052 76.1531 212.165 78.8743 212.279 83.0695C210.238 84.0899 208.084 83.4096 208.084 81.8222Z" stroke="black" stroke-width="2.42963"/>
<path d="M265.678 100.19C266.699 101.097 268.513 102.571 267.379 103.705C262.504 108.581 255.701 111.075 248.331 111.075C230.303 111.075 223.727 98.7163 223.727 84.43C223.84 69.3502 235.179 57.445 249.125 57.445C262.05 57.445 268.4 65.9487 268.4 81.142L233.591 82.8427C233.705 95.6549 239.714 104.499 251.165 104.499C255.134 104.499 260.123 104.385 265.678 100.19ZM247.31 62.0937C240.621 62.0937 234.612 65.6085 233.705 78.7609L258.422 76.6066C258.422 70.2572 255.247 62.0937 247.31 62.0937Z" stroke="black" stroke-width="2.42963"/>
<path d="M277.099 109.941C277.099 107.787 277.099 105.859 278.233 105.859H283.675C283.789 105.859 285.376 105.859 285.376 103.705C285.376 103.705 285.83 97.5824 285.83 92.3668V66.5156C285.83 65.155 285.036 63.7944 282.655 63.7944H278.12C277.666 63.7944 277.553 63.681 277.553 63.3409V60.8465C277.553 60.6197 277.553 60.0528 278.12 59.9394C278.8 59.826 291.839 57.5584 292.179 57.5584C293.086 57.5584 293.313 57.8985 293.313 57.8985L295.58 60.3929V67.7628C295.921 66.2888 303.517 57.445 310.093 57.445C313.382 57.445 316.896 58.1253 318.03 61.1866C318.03 61.1866 318.257 61.6401 318.144 62.5472L317.463 71.6178C317.463 71.8446 317.237 71.958 317.01 71.958C315.763 72.0713 312.815 71.958 312.928 71.958C312.588 71.958 312.475 71.8446 312.475 71.5044C312.248 69.4635 312.021 68.1029 311.794 67.0825C311.341 65.155 309.753 64.7015 307.259 64.7015C302.27 64.9282 295.58 71.6178 295.58 75.9264V92.3668C295.58 97.3557 296.147 103.705 296.147 103.705C296.261 105.859 299.776 105.859 299.889 105.859H305.218C306.352 105.859 306.352 107.9 306.352 109.941C306.352 109.941 295.921 109.601 290.365 109.601C285.036 109.601 277.099 109.941 277.099 109.941Z" stroke="black" stroke-width="2.42963"/>
<path d="M360.226 105.859H365.782C366.689 105.859 367.256 105.066 367.369 103.705C367.369 103.705 367.936 97.5824 367.936 92.3668V77.1736C367.936 71.6178 367.596 65.155 357.165 65.0416C350.475 65.0416 343.559 69.9171 343.219 73.9988V92.3668C343.219 97.3557 343.786 103.705 343.786 103.705C343.899 105.066 344.353 105.859 345.373 105.859H350.702C351.836 105.859 351.836 107.9 351.836 109.941C347.641 109.714 343.559 109.601 338.003 109.601C332.674 109.601 329.046 109.828 324.738 109.941C324.738 107.787 324.738 105.859 325.871 105.859H331.314C332.334 105.859 332.788 105.066 333.014 103.705C333.014 103.705 333.468 97.5824 333.468 92.3668V66.9691C333.468 65.6085 332.674 64.2479 330.293 64.2479H325.758C325.304 64.2479 325.191 64.1346 325.191 63.7944V61.3C325.191 61.0732 325.191 60.5063 325.758 60.3929C326.438 60.2795 339.477 58.0119 339.817 58.0119C340.725 58.0119 340.951 58.352 340.951 58.352L343.219 60.8465V66.8557C343.786 66.629 351.269 58.0119 360.907 58.0119C366.576 58.0119 374.059 61.4134 376.667 67.7628C377.801 66.629 385.851 58.0119 395.262 58.0119C402.291 58.0119 412.042 63.0007 412.042 72.5249V92.3668C412.042 97.3557 412.609 103.705 412.609 103.705C412.722 105.066 413.176 105.859 414.196 105.859L419.525 105.519C420.659 105.519 420.659 107.56 420.659 109.601C416.578 109.374 412.382 109.601 406.827 109.601C401.498 109.601 397.869 109.828 393.561 109.941C393.561 107.787 393.561 105.859 394.695 105.859H400.137C401.157 105.859 401.611 105.066 401.838 103.705C401.838 103.705 402.291 97.5824 402.291 92.3668V77.1736C402.291 71.6178 402.065 65.155 391.633 65.0416C384.944 65.0416 378.027 70.1438 377.687 74.2256V92.3668C377.687 97.3557 378.141 103.705 378.141 103.705C378.254 105.066 378.821 105.859 379.842 105.859H385.171C386.304 105.859 386.304 107.9 386.304 109.941C382.109 109.714 377.914 109.601 372.472 109.601C367.143 109.601 363.401 109.828 359.093 109.941C359.093 107.787 359.092 105.859 360.226 105.859Z" stroke="black" stroke-width="2.42963"/>
<path d="M458.992 98.4895V86.3576C452.303 87.8315 446.974 89.5323 443.232 91.233C440.624 92.3668 438.357 94.2943 438.357 97.6958C438.357 101.778 441.191 104.272 444.366 104.272C448.788 104.272 454.911 101.551 458.992 98.4895ZM433.028 67.3093C433.028 66.4022 433.028 66.2888 433.595 65.8353C435.295 64.7015 443.572 57.445 450.375 57.445C456.498 57.445 468.63 60.5063 468.63 71.2777V90.2126C468.63 98.3761 468.857 101.324 468.857 101.324C469.083 103.818 470.331 105.633 473.165 105.633H475.319C475.773 105.633 476 105.859 476 106.086V108.467C476 108.921 476 109.261 475.433 109.374C468.857 110.395 462.847 111.302 462.394 111.302C461.487 111.302 461.26 110.962 461.26 110.962L458.992 108.467V102.458C454.457 106.766 448.675 111.075 442.439 111.075C434.955 111.075 429.286 105.859 429.286 97.8092C429.286 92.2535 434.388 89.0787 438.357 87.7181C444.706 85.4505 449.355 84.0899 458.992 82.6159V74.339C458.879 70.0305 456.271 63.7944 445.953 63.7944C443.799 63.7944 440.398 64.2479 439.944 67.0825C439.717 68.2163 439.491 70.2572 439.15 75.0193C439.15 75.3594 439.037 75.3594 438.81 75.4728C438.697 75.4728 435.182 75.4728 433.595 75.2461C433.595 75.2461 433.255 75.2461 433.255 74.9059L433.028 67.3093Z" stroke="black" stroke-width="2.42963"/>
<path d="M511.281 102.231C513.095 105.066 512.415 106.2 511.281 106.993C508.56 108.921 503.458 110.508 499.83 110.508C491.326 110.508 487.698 106.88 487.698 97.2423V66.8557C487.584 65.8353 487.244 65.0416 486.11 65.0416L481.348 64.9282C481.008 64.9282 480.895 64.8149 480.895 64.4747V61.6401C480.895 61.3 480.895 60.8465 481.348 60.7331L487.698 59.5992V48.8279C487.698 48.4877 487.698 48.261 488.151 47.9208L493.594 42.1383C493.594 42.1383 493.82 41.7982 494.727 41.7982C495.068 41.7982 496.201 42.2517 496.995 42.5918C497.449 42.7052 497.449 43.1588 497.449 43.3855V58.8056C497.562 59.2591 497.789 59.5992 498.242 59.5992L511.621 59.4859C511.621 63.0007 511.621 64.9282 509.24 64.9282H498.469C497.789 64.9282 497.562 65.4951 497.449 66.0621V97.2423C497.449 103.365 500.51 104.499 502.891 104.499C507.313 104.499 511.281 102.231 511.281 102.231Z" stroke="black" stroke-width="2.42963"/>
</svg>
